<?xml version="1.0" encoding="utf-8"?>
<!-- Generator: Adobe Illustrator 24.0.0, SVG Export Plug-In . SVG Version: 6.00 Build 0)  -->
<svg version="1.1" id="Layer_1" xmlns="http://www.w3.org/2000/svg" xmlns:xlink="http://www.w3.org/1999/xlink" x="0px" y="0px"
	 viewBox="0 0 1021 40.6" style="enable-background:new 0 0 1021 40.6;" xml:space="preserve">
<style type="text/css">
	.st0{fill:#808080;}
</style>
<g>
	<g>
		<polygon class="st0" points="0,8.8 16.9,0.6 33.8,8.8 50.3,0.8 66.8,8.8 83.2,0.8 99.7,8.8 116.1,0.8 132.6,8.8 149,0.8 
			165.5,8.8 182,0.8 198.4,8.8 214.9,0.8 231.3,8.8 247.8,0.8 264.2,8.8 280.7,0.8 297.1,8.8 313.6,0.8 330,8.8 346.5,0.8 
			362.9,8.8 379.4,0.8 395.9,8.8 412.3,0.8 428.8,8.8 445.2,0.8 461.7,8.8 478.1,0.8 494.6,8.8 511,0.8 527.5,8.8 543.9,0.8 
			560.4,8.8 576.8,0.8 593.3,8.8 609.7,0.8 626.2,8.8 642.6,0.8 659.1,8.8 675.5,0.8 692,8.8 708.4,0.8 724.9,8.8 741.3,0.8 
			757.8,8.8 774.2,0.8 790.7,8.8 807.1,0.8 823.6,8.8 840,0.8 856.5,8.8 872.9,0.8 889.4,8.8 905.8,0.8 922.3,8.8 938.7,0.8 
			955.2,8.8 971.6,0.8 988.1,8.8 1004.5,0.8 1021,8.8 1021,40.6 -0.1,40.6 		"/>
	</g>
	<g>
		<polygon points="1021,10 1004.5,2 988.1,10 971.6,2 955.2,10 938.7,2 922.3,10 905.8,2 889.4,10 872.9,2 856.5,10 840,2 823.6,10 
			807.1,2 790.7,10 774.2,2 757.8,10 741.3,2 724.9,10 708.4,2 692,10 675.5,2 659.1,10 642.6,2 626.2,10 609.7,2 593.3,10 576.8,2 
			560.4,10 543.9,2 527.5,10 511,2 494.6,10 478.1,2 461.7,10 445.2,2 428.8,10 412.3,2 395.9,10 379.4,2 362.9,10 346.5,2 330,10 
			313.6,2 297.1,10 280.7,2 264.2,10 247.8,2 231.3,10 214.9,2 198.4,10 182,2 165.5,10 149,2 132.6,10 116.1,2 99.7,10 83.2,2 
			66.8,10 50.3,2 33.8,10 16.9,1.7 0,10 0,8.3 16.9,0.1 33.8,8.3 50.3,0.3 66.8,8.3 83.2,0.3 99.7,8.3 116.1,0.3 132.6,8.3 149,0.3 
			165.5,8.3 182,0.3 198.4,8.3 214.9,0.3 231.3,8.3 247.8,0.3 264.2,8.3 280.7,0.3 297.1,8.3 313.6,0.3 330,8.3 346.5,0.3 
			362.9,8.3 379.4,0.3 395.9,8.3 412.3,0.3 428.8,8.3 445.2,0.3 461.7,8.3 478.1,0.3 494.6,8.3 511,0.3 527.5,8.3 543.9,0.3 
			560.4,8.3 576.8,0.3 593.3,8.3 609.7,0.3 626.2,8.3 642.6,0.3 659.1,8.3 675.5,0.3 692,8.3 708.4,0.3 724.9,8.3 741.3,0.3 
			757.8,8.3 774.2,0.3 790.7,8.3 807.1,0.3 823.6,8.3 840,0.3 856.5,8.3 872.9,0.3 889.4,8.3 905.8,0.3 922.3,8.3 938.7,0.3 
			955.2,8.3 971.6,0.3 988.1,8.3 1004.5,0.3 1021,8.3 		"/>
	</g>
</g>
</svg>
