<svg id="Layer_1" data-name="Layer 1" xmlns="http://www.w3.org/2000/svg" viewBox="0 0 1021.1 17.03"><defs><style>.cls-1{fill:#e2e2e2;}</style></defs><title>comment_bottom</title><polygon class="cls-1" points="0.1 8.7 17 0.5 33.9 8.7 50.4 0.7 66.9 8.7 83.3 0.7 99.8 8.7 116.2 0.7 132.7 8.7 149.1 0.7 165.6 8.7 182.1 0.7 198.5 8.7 215 0.7 231.4 8.7 247.9 0.7 264.3 8.7 280.8 0.7 297.2 8.7 313.7 0.7 330.1 8.7 346.6 0.7 363 8.7 379.5 0.7 396 8.7 412.4 0.7 428.9 8.7 445.3 0.7 461.8 8.7 478.2 0.7 494.7 8.7 511.1 0.7 527.6 8.7 544 0.7 560.5 8.7 576.9 0.7 593.4 8.7 609.8 0.7 626.3 8.7 642.7 0.7 659.2 8.7 675.6 0.7 692.1 8.7 708.5 0.7 725 8.7 741.4 0.7 757.9 8.7 774.3 0.7 790.8 8.7 807.2 0.7 823.7 8.7 840.1 0.7 856.6 8.7 873 0.7 889.5 8.7 905.9 0.7 922.4 8.7 938.8 0.7 955.3 8.7 971.7 0.7 988.2 8.7 1004.6 0.7 1021.1 8.7 1021.1 17.03 0 17.03 0.1 8.7"/><polygon points="1021.1 9.9 1004.6 1.9 988.2 9.9 971.7 1.9 955.3 9.9 938.8 1.9 922.4 9.9 905.9 1.9 889.5 9.9 873 1.9 856.6 9.9 840.1 1.9 823.7 9.9 807.2 1.9 790.8 9.9 774.3 1.9 757.9 9.9 741.4 1.9 725 9.9 708.5 1.9 692.1 9.9 675.6 1.9 659.2 9.9 642.7 1.9 626.3 9.9 609.8 1.9 593.4 9.9 576.9 1.9 560.5 9.9 544 1.9 527.6 9.9 511.1 1.9 494.7 9.9 478.2 1.9 461.8 9.9 445.3 1.9 428.9 9.9 412.4 1.9 396 9.9 379.5 1.9 363 9.9 346.6 1.9 330.1 9.9 313.7 1.9 297.2 9.9 280.8 1.9 264.3 9.9 247.9 1.9 231.4 9.9 215 1.9 198.5 9.9 182.1 1.9 165.6 9.9 149.1 1.9 132.7 9.9 116.2 1.9 99.8 9.9 83.3 1.9 66.9 9.9 50.4 1.9 33.9 9.9 17 1.6 0.1 9.9 0.1 8.2 17 0 33.9 8.2 50.4 0.2 66.9 8.2 83.3 0.2 99.8 8.2 116.2 0.2 132.7 8.2 149.1 0.2 165.6 8.2 182.1 0.2 198.5 8.2 215 0.2 231.4 8.2 247.9 0.2 264.3 8.2 280.8 0.2 297.2 8.2 313.7 0.2 330.1 8.2 346.6 0.2 363 8.2 379.5 0.2 396 8.2 412.4 0.2 428.9 8.2 445.3 0.2 461.8 8.2 478.2 0.2 494.7 8.2 511.1 0.2 527.6 8.2 544 0.2 560.5 8.2 576.9 0.2 593.4 8.2 609.8 0.2 626.3 8.2 642.7 0.2 659.2 8.2 675.6 0.2 692.1 8.2 708.5 0.2 725 8.2 741.4 0.2 757.9 8.2 774.3 0.2 790.8 8.2 807.2 0.2 823.7 8.2 840.1 0.2 856.6 8.2 873 0.2 889.5 8.2 905.9 0.2 922.4 8.2 938.8 0.2 955.3 8.2 971.7 0.2 988.2 8.2 1004.6 0.2 1021.1 8.2 1021.1 9.9"/></svg>