<?xml version="1.0" encoding="utf-8"?>
<!-- Generator: Adobe Illustrator 24.0.0, SVG Export Plug-In . SVG Version: 6.00 Build 0)  -->
<svg version="1.1" id="Layer_1" xmlns:serif="http://www.serif.com/"
	 xmlns="http://www.w3.org/2000/svg" xmlns:xlink="http://www.w3.org/1999/xlink" x="0px" y="0px" viewBox="0 0 234.5 361.4"
	 style="enable-background:new 0 0 234.5 361.4;" xml:space="preserve">
<style type="text/css">
	.st0{fill:#0E0F0F;}
</style>
<g transform="matrix(1.54307,0,0,1.54307,-163.443,-310.729)">
	<g>
		<g>
			<g>
				<path class="st0" d="M176.5,343.9h0.7c39.3,0,71.2-32,71.2-71.2s-32-71.2-71.2-71.2h-71.2v234.2h152L176.5,343.9z M173.4,236.9
					c19.7,0,35.7,16,35.7,35.7s-16,35.7-35.7,35.7s-35.7-16-35.7-35.7S153.8,236.9,173.4,236.9z M121.3,420.1V304.7l102.5,115.4
					H121.3z"/>
			</g>
			<g>
				<path class="st0" d="M177,269.1l5.2-14.9c-2.6-1.2-5.6-2-8.7-2c-11.3,0-20.4,9.1-20.4,20.4c0,11.3,9.1,20.4,20.4,20.4
					c11.3,0,20.4-9.1,20.4-20.4c0-3.1-0.7-6-1.9-8.5L177,269.1z"/>
			</g>
		</g>
	</g>
</g>
</svg>
