<?xml version="1.0" encoding="utf-8"?>
<!-- Generator: Adobe Illustrator 24.0.0, SVG Export Plug-In . SVG Version: 6.00 Build 0)  -->
<svg version="1.1" id="Layer_1" xmlns="http://www.w3.org/2000/svg" xmlns:xlink="http://www.w3.org/1999/xlink" x="0px" y="0px"
	 viewBox="0 0 161.7 26.6" style="enable-background:new 0 0 161.7 26.6;" xml:space="preserve">
<g>
	<path d="M9.2,16.4H5.1v9.8H0V0.3h10.8c1.3,0,2.5,0.2,3.6,0.5c1.1,0.4,2,0.9,2.8,1.6s1.4,1.5,1.8,2.5c0.4,1,0.6,2.1,0.6,3.4
		c0,3.7-1.7,6.1-5.1,7.5L20,26.2h-5.6L9.2,16.4z M5.2,4.9v6.9h5.5c2.5,0,3.8-1.1,3.8-3.2c0-2.4-1.3-3.6-3.8-3.6H5.2V4.9z"/>
	<path d="M23.5,0.3h15.9v4.6H28.7v5.7h6.7v4.6h-6.7v6.4h10.7v4.6H23.5V0.3z"/>
	<path d="M60.7,7.7c-0.8-0.9-1.6-1.6-2.4-2c-0.9-0.4-1.8-0.6-2.9-0.6c-2,0-3.6,0.7-4.7,2.2s-1.7,3.5-1.7,6c0,1.2,0.2,2.3,0.5,3.3
		s0.8,1.9,1.4,2.6s1.3,1.3,2.1,1.7c0.8,0.4,1.7,0.6,2.6,0.6s1.8-0.2,2.8-0.7s1.8-1,2.4-1.7l4.3,2.6c-2.4,3.2-5.6,4.8-9.7,4.8
		c-1.7,0-3.3-0.3-4.8-1c-1.4-0.7-2.7-1.6-3.7-2.8s-1.9-2.6-2.4-4.2c-0.6-1.6-0.9-3.4-0.9-5.3s0.3-3.6,0.8-5.2s1.3-3,2.3-4.2
		s2.2-2.1,3.7-2.8c1.4-0.7,3.1-1,4.9-1c4.5,0,7.8,1.7,10,5.1L60.7,7.7z"/>
	<path d="M70.8,16.4c-0.9,0-1.5-0.3-2-0.9c-0.5-0.6-0.8-1.2-0.8-2c0-0.9,0.2-1.6,0.7-2.1c0.5-0.6,1.1-0.8,2-0.8
		c0.7,0,1.3,0.3,1.9,0.8c0.6,0.6,0.9,1.3,0.9,2.1c0,0.4-0.1,0.8-0.2,1.2c-0.2,0.4-0.4,0.7-0.6,0.9c-0.3,0.3-0.5,0.5-0.9,0.6
		C71.4,16.3,71.1,16.4,70.8,16.4z"/>
	<path d="M87.3,4.9v21.3h-5.5V4.9h-7.3V0.3h20.1v4.6H87.3z"/>
	<path d="M107.8,26.6c-1.6,0-3-0.2-4.3-0.7s-2.3-1.1-3.2-1.9s-1.5-1.8-2-3s-0.7-2.5-0.7-4V0.3h5.1v16.5c0,1.9,0.4,3.2,1.3,4
		c0.9,0.8,2.1,1.2,3.7,1.2c1.5,0,2.7-0.4,3.5-1.2c0.8-0.8,1.2-2.1,1.2-4V0.3h5.2v16.5c0,1.5-0.2,2.8-0.6,4.1
		c-0.4,1.2-1.1,2.2-1.9,3.1c-0.8,0.8-1.9,1.5-3.1,1.9C110.8,26.3,109.4,26.6,107.8,26.6z"/>
	<path d="M131.6,16.4h-4.1v9.8h-5.2V0.3h10.8c1.3,0,2.5,0.2,3.6,0.5c1.1,0.4,2,0.9,2.8,1.6s1.4,1.5,1.8,2.5c0.4,1,0.6,2.1,0.6,3.4
		c0,3.7-1.7,6.1-5.1,7.5l5.5,10.4h-5.6L131.6,16.4z M127.5,4.9v6.9h5.5c2.5,0,3.8-1.1,3.8-3.2c0-2.4-1.3-3.6-3.8-3.6h-5.5V4.9z"/>
	<path d="M145.8,0.3h15.9v4.6H151v5.7h6.7v4.6H151v6.4h10.7v4.6h-15.9V0.3z"/>
</g>
</svg>
