<?xml version="1.0" encoding="UTF-8" standalone="no"?>
<!DOCTYPE svg PUBLIC "-//W3C//DTD SVG 1.1//EN" "http://www.w3.org/Graphics/SVG/1.1/DTD/svg11.dtd">
<svg width="100%" height="100%" viewBox="0 0 640 640" version="1.1" xmlns="http://www.w3.org/2000/svg" xmlns:xlink="http://www.w3.org/1999/xlink" xml:space="preserve" xmlns:serif="http://www.serif.com/" style="fill-rule:evenodd;clip-rule:evenodd;stroke-linejoin:round;stroke-miterlimit:2;">
    <rect x="0" y="0" width="640" height="640" style="fill:white;"/>
    <g transform="matrix(1.54307,0,0,1.54307,-163.443,-310.729)">
        <g>
            <g>
                <g>
                    <path d="M231.9,534.5C231.8,534.5 231.7,534.4 231.7,534.3L231.7,283C231.7,282.9 231.8,282.8 231.9,282.8L305.9,282.8C347.2,282.8 382.9,314.5 384.9,355.8C386.9,399.7 351.8,436.1 308.4,436.1L307.7,436.1L394.8,534.3C394.9,534.4 394.8,534.7 394.6,534.7L231.9,534.7L231.9,534.5Z" style="fill:white;fill-rule:nonzero;"/>
                    <path d="M248.1,393.9L248.1,518L358.3,518L248.1,393.9Z" style="fill:white;fill-rule:nonzero;"/>
                    <path d="M307.5,436L308.2,436C350.4,436 384.8,401.6 384.8,359.4C384.8,317.2 350.4,282.8 308.2,282.8L231.6,282.8L231.6,534.6L395,534.6L307.5,436ZM304.2,321C325.4,321 342.6,338.2 342.6,359.4C342.6,380.6 325.4,397.8 304.2,397.8C283,397.8 265.8,380.6 265.8,359.4C265.8,338.2 283.1,321 304.2,321ZM248.1,518L248.1,393.9L358.3,518L248.1,518Z" style="fill:rgb(14,15,15);fill-rule:nonzero;"/>
                    <path d="M342.6,359.4C342.6,338.2 325.4,321 304.2,321C283,321 265.8,338.2 265.8,359.4C265.8,380.6 283,397.8 304.2,397.8C325.4,397.8 342.6,380.5 342.6,359.4ZM282.3,359.4C282.3,347.3 292.1,337.5 304.2,337.5C316.3,337.5 326.1,347.3 326.1,359.4C326.1,371.5 316.3,381.3 304.2,381.3C292.2,381.3 282.3,371.4 282.3,359.4Z" style="fill:white;fill-rule:nonzero;"/>
                </g>
                <g>
                    <path d="M308,355.6L313.6,339.6C310.8,338.3 307.6,337.5 304.3,337.5C292.2,337.5 282.4,347.3 282.4,359.4C282.4,371.5 292.2,381.3 304.3,381.3C316.4,381.3 326.2,371.5 326.2,359.4C326.2,356.1 325.5,353 324.2,350.3L308,355.6Z" style="fill:rgb(14,15,15);fill-rule:nonzero;"/>
                </g>
            </g>
        </g>
    </g>
</svg>
