<?xml version="1.0" encoding="utf-8"?>
<!-- Generator: Adobe Illustrator 24.0.0, SVG Export Plug-In . SVG Version: 6.00 Build 0)  -->
<svg version="1.1" id="Layer_1" xmlns="http://www.w3.org/2000/svg" xmlns:xlink="http://www.w3.org/1999/xlink" x="0px" y="0px"
	 viewBox="0 0 200.5 191.3" style="enable-background:new 0 0 200.5 191.3;" xml:space="preserve">
<g>
	<path d="M101.3,76.6l-5.4-6.1L79.4,51.9v0l16.5,18.6h5.7c12.2,0,22.1-9.9,22.1-22.1c0-12.2-9.9-22.1-22.1-22.1h0
		c12.2,0,22.1,9.9,22.1,22.1s-9.9,22.1-22.1,22.1h-5.7L101.3,76.6h0.3c15.6,0,28.2-12.7,28.2-28.2c0-15.6-12.7-28.2-28.2-28.2H73.4
		v24.9v31.5v36.3h60.2L101.3,76.6z M100.1,34.2c7.8,0,14.1,6.3,14.1,14.1s-6.3,14.1-14.1,14.1c-7.8,0-14.1-6.3-14.1-14.1
		S92.3,34.2,100.1,34.2z M79.4,70.5v-9.4l40.6,45.7H79.4V70.5z"/>
	<path d="M100.1,56.4c4.4,0,8.1-3.6,8.1-8.1c0-1.2-0.3-2.3-0.7-3.4l-5.9,2l2-5.9c-1-0.5-2.2-0.8-3.4-0.8c-4.4,0-8.1,3.6-8.1,8.1
		C92,52.8,95.6,56.4,100.1,56.4z"/>
</g>
<g>
	<path d="M31.4,157.9h-3.9v9.4h-4.9v-24.6h10.2c1.2,0,2.4,0.2,3.4,0.5c1,0.3,1.9,0.8,2.6,1.5s1.3,1.5,1.7,2.4c0.4,0.9,0.6,2,0.6,3.2
		c0,3.5-1.6,5.8-4.8,7.1l5.2,9.9h-5.3L31.4,157.9z M27.5,146.9v6.5h5.2c2.4,0,3.6-1,3.6-3.1c0-2.3-1.2-3.4-3.6-3.4H27.5z"/>
	<path d="M45,142.6h15.1v4.4H49.9v5.5h6.3v4.4h-6.3v6.1h10.2v4.4H45V142.6z"/>
	<path d="M80.4,149.6c-0.7-0.9-1.5-1.5-2.3-1.9s-1.7-0.6-2.7-0.6c-1.9,0-3.4,0.7-4.5,2.1c-1.1,1.4-1.6,3.3-1.6,5.7
		c0,1.1,0.2,2.2,0.5,3.1c0.3,0.9,0.7,1.8,1.3,2.5c0.6,0.7,1.2,1.2,2,1.6s1.6,0.6,2.5,0.6c0.9,0,1.8-0.2,2.7-0.7
		c0.9-0.4,1.7-1,2.3-1.6l4.1,2.5c-2.3,3.1-5.4,4.6-9.2,4.6c-1.7,0-3.2-0.3-4.5-1c-1.4-0.6-2.5-1.5-3.5-2.7c-1-1.1-1.8-2.5-2.3-4
		c-0.5-1.5-0.8-3.2-0.8-5.1c0-1.8,0.3-3.4,0.8-5c0.5-1.5,1.3-2.9,2.2-4c1-1.1,2.1-2,3.5-2.7c1.4-0.6,2.9-1,4.7-1
		c4.2,0,7.4,1.6,9.5,4.9L80.4,149.6z"/>
	<path d="M89.9,157.9c-0.8,0-1.5-0.3-1.9-0.8c-0.5-0.5-0.7-1.2-0.7-2c0-0.8,0.2-1.5,0.7-2c0.5-0.5,1.1-0.8,1.9-0.8
		c0.6,0,1.2,0.3,1.8,0.8c0.5,0.5,0.8,1.2,0.8,2c0,0.4-0.1,0.8-0.2,1.1c-0.2,0.3-0.4,0.6-0.6,0.9c-0.2,0.3-0.5,0.5-0.8,0.6
		C90.6,157.9,90.2,157.9,89.9,157.9z"/>
	<path d="M105.7,146.9v20.3h-5.3v-20.3h-7v-4.4h19.2v4.4H105.7z"/>
	<path d="M125.2,167.6c-1.5,0-2.9-0.2-4.1-0.7c-1.2-0.4-2.2-1-3-1.8c-0.8-0.8-1.4-1.8-1.9-2.9c-0.4-1.1-0.6-2.4-0.6-3.8v-15.8h4.9
		v15.7c0,1.8,0.4,3.1,1.2,3.8c0.8,0.7,2,1.1,3.5,1.1c1.5,0,2.6-0.4,3.3-1.1c0.8-0.7,1.1-2,1.1-3.8v-15.7h4.9v15.7
		c0,1.4-0.2,2.7-0.6,3.9c-0.4,1.2-1,2.1-1.8,2.9c-0.8,0.8-1.8,1.4-2.9,1.9C128,167.4,126.7,167.6,125.2,167.6z"/>
	<path d="M147.8,157.9h-3.9v9.4H139v-24.6h10.2c1.2,0,2.4,0.2,3.4,0.5c1,0.3,1.9,0.8,2.6,1.5s1.3,1.5,1.7,2.4c0.4,0.9,0.6,2,0.6,3.2
		c0,3.5-1.6,5.8-4.8,7.1l5.2,9.9h-5.3L147.8,157.9z M143.9,146.9v6.5h5.2c2.4,0,3.6-1,3.6-3.1c0-2.3-1.2-3.4-3.6-3.4H143.9z"/>
	<path d="M161.4,142.6h15.1v4.4h-10.2v5.5h6.3v4.4h-6.3v6.1h10.2v4.4h-15.1V142.6z"/>
</g>
</svg>
